# xmcd
#
# Track frame offsets:
#	150
#	14119
#	25662
#	42346
#	61171
#	76106
#	89142
#	100338
#	118190
#	133411
#	149458
#	165063
#	180235
#	192691
#	207004
#	223757
#	238923
#	256297
#	271527
#	283090
#	297029
#	312363
#
# Disc length: 4378 seconds
#
# Revision: 0
# Processed by: cddbd v1.4b41PL1 Copyright (c) Steve Scherf et al.
# Submitted via: audiograbber 1.80
#
DISCID=47111816
DTITLE=Various Country Artists - Contemporary Country - The Late 80's
DYEAR=1900
DGENRE=
TTITLE0=Clint Black - Better Man
TTITLE1=Highway 101 - Cry, Cry, Cry
TTITLE2=Randy Travis - I Told You So
TTITLE3=K.T. Olsin - I'll Always Come Back
TTITLE4=Keith Whitley - I Wonder Do You Think Of Me
TTITLE5=Hank Williams Jr and Sr - There's A Tear In My Beer
TTITLE6=Vern Gosdin - Set 'em Up Joe
TTITLE7=Restless Heart - Bluest Eyes In Texas
TTITLE8=Rosanne Cash - If You Change Your Mind
TTITLE9=Reba McEntire - What Am I Gonna Do About You
TTITLE10=Merle Haggard - Twinkle, Twinkle Lucky Star
TTITLE11=The Nitty Gritty Dirt Band - Fishin' In The Dark
TTITLE12=Tanya Tucker - Strong Enough To Bend
TTITLE13=George Strait - Ocean Front Property
TTITLE14=The Judds - Cry Myself To Sleep
TTITLE15=Ricky Van Shelton - Somebody Lied
TTITLE16=Eddy Raven - Joe Knows How To Live
TTITLE17=Eddie Rabbitt - The Wanderer
TTITLE18=Patty Loveless - Timber, I'm Falling In Love
TTITLE19=Alabama - High Cotton
TTITLE20=Kathy Mattea - Eighteen Wheels And A Dozen Roses
TTITLE21=Earl Thomas Conley and Emmylou Harris - We Believe In Happy Endings
EXTD=added artists names
EXTT0=
EXTT1=
EXTT2=
EXTT3=
EXTT4=
EXTT5=
EXTT6=
EXTT7=
EXTT8=
EXTT9=
EXTT10=
EXTT11=
EXTT12=
EXTT13=
EXTT14=
EXTT15=
EXTT16=
EXTT17=
EXTT18=
EXTT19=
EXTT20=
EXTT21=
PLAYORDER=
